<?xml version="1.0" encoding="utf-8"?>
<!-- Generator: Adobe Illustrator 15.1.0, SVG Export Plug-In  -->
<!DOCTYPE svg PUBLIC "-//W3C//DTD SVG 1.1//EN" "http://www.w3.org/Graphics/SVG/1.1/DTD/svg11.dtd" [
	<!ENTITY ns_flows "http://ns.adobe.com/Flows/1.0/">
]>
<svg version="1.1"
	 xmlns="http://www.w3.org/2000/svg" xmlns:xlink="http://www.w3.org/1999/xlink" xmlns:a="http://ns.adobe.com/AdobeSVGViewerExtensions/3.0/"
	 x="0px" y="0px" width="208px" height="256px" viewBox="-15.5 -6.254 208 256" enable-background="new -15.5 -6.254 208 256"
	 xml:space="preserve">
<defs>
</defs>
<path fill="#FFFFFF" d="M31.018,217.495l-23.544-14.58c-1.716-1.127-3.119-0.295-3.119,1.842v28.314c0,2.135,1.405,2.963,3.119,1.84
	l23.544-14.588c0,0,0.834-0.59,0.834-1.412C31.851,218.086,31.018,217.495,31.018,217.495z"/>
<path fill="#FFFFFF" d="M29.699,145.939h-3.958c-0.545,0-1.132-0.422-1.304-0.939l-1.023-3.07c-0.174-0.519-0.76-0.939-1.305-0.939
	H10.89c-0.545,0-1.132,0.421-1.303,0.938L8.562,145c-0.172,0.518-0.757,0.939-1.303,0.939h-3.96c-1.815,0-3.299,1.484-3.299,3.301
	v14.85c0,1.814,1.484,3.299,3.299,3.299h26.4c1.817,0,3.301-1.484,3.301-3.299v-14.85C33,147.423,31.516,145.939,29.699,145.939z
	 M16.5,164.089c-4.558,0-8.25-3.694-8.25-8.25c0-4.557,3.693-8.25,8.25-8.25c4.554,0,8.25,3.693,8.25,8.25
	C24.75,160.395,21.055,164.089,16.5,164.089z M28.544,151.546c-0.637,0-1.153-0.518-1.153-1.155c0-0.64,0.516-1.155,1.153-1.155
	c0.638,0,1.155,0.516,1.155,1.155C29.699,151.029,29.183,151.546,28.544,151.546z"/>
<circle fill="#FFFFFF" cx="16.5" cy="155.838" r="4.95"/>
<path fill="#FFFFFF" d="M82.399,140.001h-2.968c-0.409,0-0.85-0.316-0.979-0.705l-0.767-2.303c-0.131-0.389-0.57-0.704-0.979-0.704
	h-8.414c-0.409,0-0.849,0.315-0.977,0.703l-0.769,2.304c-0.129,0.389-0.568,0.705-0.978,0.705h-2.97
	c-1.361,0-2.474,1.113-2.474,2.476v11.137c0,1.361,1.113,2.475,2.474,2.475h19.8c1.363,0,2.476-1.113,2.476-2.475v-11.137
	C84.875,141.115,83.762,140.001,82.399,140.001z M72.5,153.614c-3.418,0-6.188-2.771-6.188-6.188s2.77-6.188,6.188-6.188
	c3.416,0,6.187,2.771,6.187,6.188S75.916,153.614,72.5,153.614z M81.533,144.207c-0.478,0-0.865-0.388-0.865-0.866
	c0-0.479,0.387-0.866,0.865-0.866c0.479,0,0.866,0.387,0.866,0.866C82.399,143.819,82.012,144.207,81.533,144.207z"/>
<circle fill="#FFFFFF" cx="72.5" cy="147.426" r="3.712"/>
<path fill="#FFFFFF" d="M124.75,137.033h-2.475c-0.34,0-0.707-0.264-0.814-0.588l-0.64-1.919c-0.108-0.324-0.476-0.587-0.815-0.587
	h-7.012c-0.342,0-0.708,0.263-0.814,0.586l-0.641,1.92c-0.107,0.324-0.475,0.588-0.814,0.588h-2.475
	c-1.135,0-2.063,0.928-2.063,2.063v9.281c0,1.134,0.928,2.062,2.063,2.062h16.5c1.135,0,2.063-0.928,2.063-2.062v-9.281
	C126.813,137.96,125.885,137.033,124.75,137.033z M116.5,148.376c-2.848,0-5.156-2.31-5.156-5.156c0-2.848,2.309-5.156,5.156-5.156
	c2.847,0,5.156,2.309,5.156,5.156C121.656,146.067,119.347,148.376,116.5,148.376z M124.027,140.537
	c-0.397,0-0.721-0.323-0.721-0.722c0-0.399,0.323-0.722,0.721-0.722c0.399,0,0.723,0.322,0.723,0.722
	C124.75,140.213,124.427,140.537,124.027,140.537z"/>
<circle fill="#FFFFFF" cx="116.5" cy="143.219" r="3.094"/>
<path fill="#FFFFFF" d="M159.1,134.064h-1.979c-0.273,0-0.566-0.211-0.652-0.471l-0.512-1.535c-0.088-0.259-0.381-0.47-0.652-0.47
	h-5.609c-0.273,0-0.566,0.211-0.651,0.469l-0.513,1.536c-0.086,0.26-0.379,0.471-0.652,0.471h-1.979
	c-0.907,0-1.649,0.742-1.649,1.649v7.426c0,0.906,0.742,1.648,1.649,1.648h13.2c0.908,0,1.65-0.742,1.65-1.648v-7.426
	C160.75,134.806,160.008,134.064,159.1,134.064z M152.5,143.139c-2.279,0-4.125-1.848-4.125-4.125c0-2.278,1.846-4.125,4.125-4.125
	c2.277,0,4.125,1.847,4.125,4.125C156.625,141.292,154.777,143.139,152.5,143.139z M158.521,136.867
	c-0.318,0-0.576-0.259-0.576-0.577c0-0.319,0.258-0.577,0.576-0.577c0.32,0,0.578,0.258,0.578,0.577
	C159.1,136.608,158.842,136.867,158.521,136.867z"/>
<circle fill="#FFFFFF" cx="152.5" cy="139.013" r="2.475"/>
<path fill="#FFFFFF" d="M185.449,131.095h-1.483c-0.205,0-0.425-0.158-0.489-0.354l-0.384-1.151
	c-0.065-0.194-0.286-0.353-0.489-0.353h-4.207c-0.205,0-0.425,0.158-0.488,0.352l-0.385,1.152c-0.064,0.195-0.284,0.354-0.489,0.354
	h-1.484c-0.681,0-1.237,0.557-1.237,1.236v5.57c0,0.68,0.557,1.236,1.237,1.236h9.899c0.682,0,1.238-0.557,1.238-1.236v-5.57
	C186.688,131.652,186.131,131.095,185.449,131.095z M180.5,137.902c-1.709,0-3.094-1.387-3.094-3.094
	c0-1.709,1.385-3.094,3.094-3.094c1.708,0,3.094,1.385,3.094,3.094C183.594,136.515,182.208,137.902,180.5,137.902z
	 M185.016,133.197c-0.238,0-0.432-0.193-0.432-0.433s0.193-0.433,0.432-0.433c0.24,0,0.434,0.193,0.434,0.433
	S185.256,133.197,185.016,133.197z"/>
<circle fill="#FFFFFF" cx="180.5" cy="134.807" r="1.856"/>
<path fill="#FFFFFF" d="M83.389,209.668L65.73,198.733c-1.287-0.846-2.339-0.221-2.339,1.381v21.236c0,1.6,1.054,2.221,2.339,1.379
	l17.659-10.939c0,0,0.625-0.443,0.625-1.061C84.013,210.112,83.389,209.668,83.389,209.668z"/>
<path fill="#FFFFFF" d="M125.574,205.754l-14.716-9.113c-1.073-0.703-1.949-0.184-1.949,1.152v17.695
	c0,1.334,0.878,1.852,1.949,1.15l14.716-9.117c0,0,0.521-0.369,0.521-0.883C126.094,206.124,125.574,205.754,125.574,205.754z"/>
<path fill="#FFFFFF" d="M159.76,201.842l-11.773-7.291c-0.857-0.564-1.559-0.146-1.559,0.92v14.158c0,1.066,0.702,1.48,1.559,0.92
	l11.773-7.293c0,0,0.417-0.297,0.417-0.707C160.175,202.137,159.76,201.842,159.76,201.842z"/>
<path fill="#FFFFFF" d="M185.944,197.928l-8.83-5.469c-0.644-0.422-1.169-0.109-1.169,0.691v10.617c0,0.801,0.526,1.111,1.169,0.691
	l8.83-5.471c0,0,0.313-0.223,0.313-0.529C186.255,198.149,185.944,197.928,185.944,197.928z"/>
<path fill="#FFFFFF" d="M28.024,78.176c-0.567-0.567-1.49-0.567-2.059,0c-0.567,0.569-0.567,1.491,0,2.06
	c2.659,2.658,4.123,6.192,4.123,9.952s-1.463,7.293-4.124,9.951c-0.567,0.568-0.567,1.491,0,2.06
	c0.286,0.283,0.657,0.425,1.03,0.425c0.373,0,0.746-0.142,1.03-0.425C31.233,98.99,33,94.725,33,90.188S31.233,81.385,28.024,78.176
	z"/>
<path fill="#FFFFFF" d="M22.853,80.923c-0.569-0.568-1.491-0.568-2.06,0c-0.567,0.568-0.567,1.491,0,2.059
	c3.974,3.974,3.974,10.439,0,14.412c-0.567,0.569-0.567,1.491,0,2.06c0.286,0.283,0.659,0.426,1.03,0.426
	c0.373,0,0.746-0.143,1.03-0.427c2.475-2.475,3.838-5.765,3.838-9.265S25.328,83.397,22.853,80.923z"/>
<path fill="#FFFFFF" d="M17.682,83.669c-0.569-0.568-1.491-0.568-2.06,0c-0.567,0.568-0.567,1.491,0,2.059
	c2.46,2.459,2.46,6.461,0,8.922c-0.567,0.567-0.567,1.49,0,2.059c0.286,0.283,0.659,0.426,1.031,0.426
	c0.372,0,0.743-0.143,1.029-0.426C21.276,93.113,21.276,87.264,17.682,83.669z"/>
<path fill="#FFFFFF" d="M12.171,77.044l-7.318,7.32H0v11.647h4.853l7.318,7.32c0.78,0.778,1.417,0.516,1.417-0.586V77.63
	C13.588,76.529,12.951,76.266,12.171,77.044z"/>
<path fill="#FFFFFF" d="M81.143,73.179c-0.425-0.425-1.117-0.425-1.544,0c-0.425,0.427-0.425,1.119,0,1.544
	c1.995,1.994,3.092,4.644,3.092,7.464s-1.098,5.471-3.093,7.463c-0.425,0.426-0.425,1.119,0,1.545
	c0.214,0.212,0.493,0.318,0.773,0.318c0.279,0,0.559-0.106,0.772-0.318c2.407-2.407,3.732-5.605,3.732-9.008
	S83.55,75.586,81.143,73.179z"/>
<path fill="#FFFFFF" d="M77.265,75.239c-0.426-0.426-1.118-0.426-1.545,0c-0.425,0.426-0.425,1.118,0,1.544
	c2.98,2.981,2.98,7.83,0,10.809c-0.425,0.426-0.425,1.118,0,1.545c0.214,0.212,0.494,0.319,0.773,0.319
	c0.279,0,0.559-0.107,0.772-0.321c1.856-1.856,2.879-4.324,2.879-6.949S79.121,77.095,77.265,75.239z"/>
<path fill="#FFFFFF" d="M73.386,77.299c-0.427-0.426-1.118-0.426-1.545,0c-0.426,0.426-0.426,1.118,0,1.544
	c1.845,1.845,1.845,4.846,0,6.691c-0.426,0.426-0.426,1.118,0,1.544c0.214,0.212,0.494,0.319,0.773,0.319
	c0.278,0,0.557-0.107,0.771-0.319C76.082,84.382,76.082,79.995,73.386,77.299z"/>
<path fill="#FFFFFF" d="M69.253,72.33l-5.489,5.49h-3.64v8.735h3.64l5.489,5.49c0.585,0.583,1.063,0.387,1.063-0.439V72.77
	C70.316,71.944,69.838,71.746,69.253,72.33z"/>
<path fill="#FFFFFF" d="M123.703,70.681c-0.355-0.354-0.932-0.354-1.287,0c-0.354,0.355-0.354,0.932,0,1.287
	c1.662,1.662,2.576,3.87,2.576,6.22s-0.914,4.559-2.577,6.22c-0.354,0.355-0.354,0.932,0,1.288c0.179,0.176,0.411,0.265,0.644,0.265
	c0.233,0,0.467-0.089,0.645-0.265c2.006-2.007,3.109-4.672,3.109-7.508C126.813,75.352,125.709,72.687,123.703,70.681z"/>
<path fill="#FFFFFF" d="M120.471,72.397c-0.355-0.355-0.932-0.355-1.287,0c-0.355,0.355-0.355,0.932,0,1.287
	c2.482,2.484,2.482,6.524,0,9.008c-0.355,0.354-0.355,0.931,0,1.287c0.178,0.178,0.411,0.266,0.644,0.266
	c0.233,0,0.466-0.088,0.644-0.268c1.547-1.546,2.398-3.604,2.398-5.79C122.869,76,122.018,73.943,120.471,72.397z"/>
<path fill="#FFFFFF" d="M117.238,74.114c-0.355-0.355-0.932-0.355-1.287,0c-0.355,0.355-0.355,0.932,0,1.287
	c1.537,1.537,1.537,4.038,0,5.576c-0.355,0.354-0.355,0.931,0,1.286c0.178,0.177,0.412,0.267,0.645,0.267s0.465-0.09,0.643-0.267
	C119.484,80.016,119.484,76.36,117.238,74.114z"/>
<path fill="#FFFFFF" d="M113.795,69.973l-4.574,4.575h-3.033v7.28h3.033l4.574,4.575c0.486,0.485,0.885,0.322,0.885-0.366V70.339
	C114.68,69.651,114.281,69.486,113.795,69.973z"/>
<path fill="#FFFFFF" d="M158.262,68.182c-0.283-0.284-0.744-0.284-1.029,0c-0.283,0.284-0.283,0.746,0,1.03
	c1.33,1.329,2.063,3.096,2.063,4.976c0,1.88-0.732,3.647-2.063,4.976c-0.283,0.285-0.283,0.746,0,1.031
	c0.143,0.141,0.328,0.211,0.516,0.211c0.186,0,0.373-0.07,0.514-0.211c1.605-1.605,2.488-3.738,2.488-6.007
	C160.75,71.919,159.867,69.787,158.262,68.182z"/>
<path fill="#FFFFFF" d="M155.678,69.556c-0.285-0.285-0.746-0.285-1.031,0c-0.283,0.284-0.283,0.745,0,1.029
	c1.986,1.987,1.986,5.219,0,7.207c-0.283,0.283-0.283,0.744,0,1.029c0.143,0.143,0.33,0.213,0.516,0.213s0.373-0.07,0.516-0.215
	c1.236-1.236,1.918-2.882,1.918-4.632S156.914,70.792,155.678,69.556z"/>
<path fill="#FFFFFF" d="M153.092,70.929c-0.285-0.285-0.746-0.285-1.031,0c-0.283,0.284-0.283,0.745,0,1.029
	c1.23,1.229,1.23,3.23,0,4.461c-0.283,0.283-0.283,0.744,0,1.029c0.143,0.141,0.33,0.213,0.516,0.213s0.373-0.072,0.516-0.213
	C154.889,75.651,154.889,72.726,153.092,70.929z"/>
<path fill="#FFFFFF" d="M150.336,67.616l-3.659,3.66h-2.427v5.825h2.427l3.659,3.66c0.391,0.388,0.709,0.258,0.709-0.293V67.909
	C151.045,67.359,150.727,67.227,150.336,67.616z"/>
<path fill="#FFFFFF" d="M184.821,65.684c-0.213-0.213-0.559-0.213-0.772,0c-0.213,0.213-0.213,0.559,0,0.772
	c0.997,0.997,1.547,2.322,1.547,3.732c0,1.409-0.55,2.735-1.547,3.731c-0.213,0.214-0.213,0.56,0,0.773
	c0.106,0.105,0.246,0.158,0.387,0.158c0.139,0,0.279-0.053,0.386-0.158c1.203-1.204,1.865-2.804,1.865-4.504
	C186.687,68.487,186.024,66.887,184.821,65.684z"/>
<path fill="#FFFFFF" d="M182.883,66.714c-0.214-0.213-0.56-0.213-0.773,0c-0.213,0.212-0.213,0.559,0,0.772
	c1.49,1.49,1.49,3.914,0,5.405c-0.213,0.212-0.213,0.558,0,0.772c0.107,0.107,0.247,0.16,0.387,0.16s0.279-0.053,0.387-0.161
	c0.927-0.927,1.438-2.162,1.438-3.473C184.321,68.875,183.81,67.641,182.883,66.714z"/>
<path fill="#FFFFFF" d="M180.943,67.744c-0.214-0.214-0.56-0.214-0.773,0c-0.213,0.213-0.213,0.559,0,0.772
	c0.923,0.922,0.923,2.422,0,3.345c-0.213,0.212-0.213,0.558,0,0.772c0.107,0.105,0.247,0.16,0.387,0.16s0.279-0.054,0.387-0.16
	C182.291,71.285,182.291,69.091,180.943,67.744z"/>
<path fill="#FFFFFF" d="M178.876,65.259l-2.744,2.745h-1.819v4.368h1.819l2.744,2.745c0.293,0.292,0.532,0.193,0.532-0.22v-9.418
	C179.408,65.066,179.169,64.967,178.876,65.259z"/>
<path fill="#FFFFFF" d="M25.667,9.688H7.334c-2.017,0-3.667,1.65-3.667,3.667v25.667c0,2.016,1.65,3.666,3.667,3.666h18.333
	c2.016,0,3.666-1.65,3.666-3.666V13.354C29.333,11.337,27.683,9.688,25.667,9.688z M25.667,39.021H7.334V13.354h18.333V39.021z"/>
<rect x="11.41" y="24.482" fill="#FFFFFF" width="10.266" height="3.3"/>
<rect x="11.367" y="17.331" fill="#FFFFFF" width="10.267" height="3.208"/>
<rect x="11.367" y="31.724" fill="#FFFFFF" width="10.267" height="3.209"/>
<path fill="#FFFFFF" d="M79.375,5.813h-13.75c-1.513,0-2.75,1.238-2.75,2.75v19.25c0,1.512,1.238,2.75,2.75,2.75h13.75
	c1.512,0,2.75-1.237,2.75-2.75V8.563C82.125,7.05,80.887,5.813,79.375,5.813z M79.375,27.813h-13.75V8.563h13.75V27.813z"/>
<rect x="68.683" y="16.909" fill="#FFFFFF" width="7.7" height="2.475"/>
<rect x="68.65" y="11.545" fill="#FFFFFF" width="7.7" height="2.405"/>
<rect x="68.65" y="22.34" fill="#FFFFFF" width="7.7" height="2.407"/>
<path fill="#FFFFFF" d="M122.229,3.875h-11.458c-1.261,0-2.293,1.032-2.293,2.292v16.042c0,1.26,1.032,2.291,2.293,2.291h11.458
	c1.26,0,2.292-1.031,2.292-2.291V6.167C124.521,4.907,123.489,3.875,122.229,3.875z M122.229,22.209h-11.458V6.167h11.458V22.209z"
	/>
<rect x="113.318" y="13.122" fill="#FFFFFF" width="6.417" height="2.063"/>
<rect x="113.291" y="8.652" fill="#FFFFFF" width="6.418" height="2.004"/>
<rect x="113.291" y="17.648" fill="#FFFFFF" width="6.418" height="2.005"/>
<path fill="#FFFFFF" d="M157.084,1.938h-9.167c-1.009,0-1.834,0.826-1.834,1.833v12.834c0,1.008,0.825,1.833,1.834,1.833h9.167
	c1.008,0,1.833-0.825,1.833-1.833V3.771C158.917,2.763,158.092,1.938,157.084,1.938z M157.084,16.605h-9.167V3.771h9.167V16.605z"/>
<rect x="149.955" y="9.335" fill="#FFFFFF" width="5.133" height="1.65"/>
<rect x="149.934" y="5.759" fill="#FFFFFF" width="5.133" height="1.604"/>
<rect x="149.934" y="12.957" fill="#FFFFFF" width="5.133" height="1.604"/>
<path fill="#FFFFFF" d="M183.938,0h-6.875c-0.757,0-1.375,0.619-1.375,1.375V11c0,0.756,0.618,1.375,1.375,1.375h6.875
	c0.756,0,1.375-0.619,1.375-1.375V1.375C185.313,0.619,184.693,0,183.938,0z M183.938,11h-6.875V1.375h6.875V11z"/>
<rect x="178.591" y="5.548" fill="#FFFFFF" width="3.85" height="1.237"/>
<rect x="178.575" y="2.866" fill="#FFFFFF" width="3.85" height="1.203"/>
<rect x="178.575" y="8.264" fill="#FFFFFF" width="3.85" height="1.203"/>
</svg>
